<svg xmlns="http://www.w3.org/2000/svg" width="40" height="40" viewBox="0 0 40 40">
  <defs>
    <linearGradient id="icon-less-a" x1="6.009%" y1="7.443%" y2="100%">
      <stop offset="0%" stop-color="#FC9D48"/>
      <stop offset="100%" stop-color="#FF578C"/>
    </linearGradient>
  </defs>
  <g fill="url(#icon-less-a)">
    <path d="M20,0 C8.94609375,0 0,8.94507813 0,20 C0,31.0539063 8.94507813,40 20,40 C31.0539063,40 40,31.0549219 40,20 C40,8.94609375 31.0549219,0 20,0 Z M20,37.3333594 C10.4424219,37.3333594 2.66664062,29.5576563 2.66664062,20 C2.66664062,10.4423438 10.4424219,2.66664062 20,2.66664062 C29.5575781,2.66664062 37.3333594,10.4424219 37.3333594,20 C37.3333594,29.5575781 29.5575781,37.3333594 20,37.3333594 Z"/>
    <path d="M28.4485352,18.2159771 L10.6212322,18.2159771 C9.89288542,18.2159771 9.30232558,18.8064596 9.30232558,19.5348837 C9.30232558,20.2633078 9.89280814,20.8537904 10.6212322,20.8537904 L28.4485352,20.8537904 C29.176882,20.8537904 29.7674419,20.2633078 29.7674419,19.5348837 C29.7674419,18.8064596 29.176882,18.2159771 28.4485352,18.2159771 Z"/>
  </g>
</svg>
